<svg xmlns="http://www.w3.org/2000/svg"  viewBox="0 0 135 135" width="66px" height="66px"><circle cx="67.5" cy="67.5" r="63" fill="#c7eafb"/><path fill="#98d9ed" d="M67.5,130.5c34.8,0,63-28.2,63-63c0-10.4-2.5-20.2-7-28.9c-0.1,0.2-0.3,0.5-0.5,0.8 c-0.4,0.6-0.8,1.3-1.2,1.9c-0.1,0.3-0.3,0.3-0.5,0.1c-0.1-0.1-0.3-0.2-0.5-0.3c-0.4-0.3-0.5-0.2-0.8,0.2 c-1.4,2.1-1.2,2.5-3.4,3.8c-0.4,0.2-0.7,0.1-1-0.2c-0.2-0.2-0.4-0.4-0.8-0.2c-0.2,0.1-1.2-0.4-2,0.8c-0.1,0.2-0.3,0.4-0.5,0.6 c-0.4,0.4-0.7,0.5-1.2,0.2c-1.3-0.7-0.8-0.6-2.1-1.4c-0.3-0.2-0.6-0.1-0.8,0.2c-0.5,0.7-1.3,1.2-1.7,1.9 c-0.1,0.2-0.2,0.3-0.4,0.1c-0.5-0.3-0.7,0.7-1.7,0.8c-0.9,0-0.8-1.2-1.4-0.3c-0.4,0.6-0.9,1.1-1.2,1.7c-0.3-1-0.8-1.9-1.2-2.8 c-0.4-1-0.8-1.1-1.7-0.3c-0.6,0.5-0.7,0.5-1-0.2c-0.5-1-1.1-2.1-1.9-2.8c-1-0.9-2.7-4-3.7-5.7c-0.4-0.6-0.6-0.7-1.2-0.2 c-0.5,0.4-0.6,0.4-0.9-0.1c-0.1-0.2-0.3-0.4-0.4-0.6c-0.4-0.7-1.1-1.1-1.6-1.7c-0.2-0.2-0.3-0.5-0.6-0.6 c-0.4-0.4,0.1-0.3-1.1-1.9c0,0,0,0,0-0.1c-1.6,2.4-2.9,4.9-4,7.6c-0.5-1.2-1.1-2.4-1.8-3.6c-0.5,0.5-0.8,1-1.2,1.6 c-0.1,0.1-0.1,0.4-0.3,0.4c-0.2,0-0.2-0.2-0.2-0.4c-2.5-6.5-2.6-6.9-3.4-8c-0.2-0.4-0.5-0.4-0.8-0.2c-0.5,0.3-0.9,0.6-1,1.2 c-0.2,0.6-0.5,0.9-1.1,1.1c-0.5,0.1-0.8,0.4-0.7,1c0,0.3-0.2,0.4-0.5,1.2c-0.1,0.2-0.2,0.6-0.4,0.8c-0.9,0.8-0.9,1.6-1,2.4 c-0.1,0.4-0.2,0.7-0.3,1c-0.1,0.2-0.2,0.4-0.4,0.4c-0.4,0.2-0.7,0.4-1.1,0.5c-0.8,0.1-1,0.5-1.4,0.9c-0.1-0.1-0.3-0.3-0.4-0.4 c-0.4-0.3-0.6-0.3-1,0.1c-0.8,0.8-0.8,0.7-1.5-0.1c-0.2-0.3-0.4-0.6-0.6-0.9c-0.2-0.2-0.4-0.5-0.7-0.2c-0.1,0.1-0.2,0-0.3-0.1 c-0.6-0.9-1.3-1.7-1.9-2.6c-0.3-0.5-0.5-0.5-0.9-0.1c-0.9,0.9-0.8,2.1-1.9,3.5c-0.4,0.6-0.8,1.3-1.2,1.9 c-0.1,0.3-0.3,0.3-0.5,0.1c-0.1-0.1-0.3-0.2-0.5-0.3c-0.4-0.3-0.5-0.2-0.8,0.2c-1.4,2.1-1.2,2.5-3.4,3.8 c-0.4,0.2-0.7,0.1-1-0.2c-0.2-0.2-0.4-0.4-0.8-0.2c-0.2,0.1-1.2-0.4-2,0.8c-0.1,0.2-0.3,0.4-0.5,0.6c-0.4,0.4-0.7,0.5-1.2,0.2 c-1.3-0.7-0.8-0.6-2.1-1.4c-0.3-0.2-0.6-0.1-0.8,0.2c-0.5,0.7-1.3,1.2-1.7,1.9c-0.1,0.2-0.2,0.3-0.4,0.1 c-0.5-0.3-0.7,0.7-1.7,0.8c-0.9,0-0.8-1.2-1.4-0.3c-0.4,0.6-0.9,1.1-1.2,1.7c-0.3-1-0.8-1.9-1.2-2.8c-0.4-1-0.8-1.1-1.7-0.3 c-0.6,0.5-0.7,0.5-1-0.2c-0.5-1-1.1-2.1-1.9-2.8c-1-0.9-2.7-4-3.7-5.7c-0.4-0.6-0.6-0.7-1.2-0.2c-0.5,0.4-0.6,0.4-0.9-0.1 c-0.1-0.2-0.3-0.4-0.4-0.6c-0.4-0.7-1.1-1.1-1.6-1.7c-0.2-0.2-0.3-0.5-0.6-0.6c-0.4-0.4,0.1-0.3-1.1-1.9c0,0,0,0,0-0.1 c-1.6,2.4-2.9,4.9-4,7.6c-0.5-1.2-1.1-2.4-1.8-3.6c-0.5,0.5-0.8,1-1.2,1.6c-0.1,0.1-0.1,0.4-0.3,0.4c-0.2,0-0.2-0.2-0.2-0.4 c-0.2-0.6-0.5-1.2-0.7-1.7c-5.3,9.2-8.4,20-8.4,31.4C4.5,102.3,32.7,130.5,67.5,130.5z"/><path fill="#ffe67d" d="M50.8,55.8L44,54.2l-3.8-5.4c-0.2-0.5-0.6-1-1-1.3c-0.3-0.3-0.7-0.5-1.2-0.6c-0.3-0.1-0.6-0.1-0.9-0.1 l-3.3,0c-0.9,0-1.8,0.3-2.4,0.9c0,0,0,0,0,0c-0.9,0.6-1.4,1.5-1.4,2.5l-0.7,30l-2.7,9.3c-0.4,1.2,0.3,2.5,1.5,2.9 c0.2,0.1,0.5,0.1,0.7,0.1c1,0,1.9-0.6,2.2-1.6l2.8-9.7c0.1-0.2,0.1-0.5,0.1-0.7V72c0-1,0.9-1.7,1.8-1.4l5.7,1.3l0.5,9.8 c0.1,1.2,1.1,2.2,2.3,2.2h0.1c1.3-0.1,2.3-1.2,2.2-2.4l-0.6-11.4c-0.1-0.9-0.7-1.8-1.5-2.1l-4-1.7L40,57.3c0.3,0.5,9.7,3,9.7,3 c0.2,0,0.4,0.1,0.5,0.1c1.1,0,2-0.7,2.3-1.8C52.8,57.4,52,56.1,50.8,55.8z"/><path fill="#aa7b79" d="M26.7,48.6c-1.7,0-3,1.4-3,3v10.2c0,1.7,1.4,3,3,3c1.7,0,3-1.4,3-3V51.6C29.8,49.9,28.4,48.6,26.7,48.6z"/><path fill="#ffe67d" d="M42.7,35.9l-1.2,6c-0.6,3-3.5,4.9-6.5,4.3c-3-0.6-4.9-3.5-4.3-6.5l1.2-6L42.7,35.9z"/><path fill="#f77754" d="M44.5,32L36,30.2c-2.4-0.5-4.8,0.9-5.5,3.2l0,0l-0.7,3.6c-0.2,0.9,0.4,1.7,1.2,1.9 c0.9,0.2,1.7-0.4,1.9-1.3l0.2-1.1c0.2-1.1,1.3-1.8,2.4-1.6l6.4,1.3c1.7,0.4,3.4-0.7,3.7-2.4C45.9,33,45.3,32.1,44.5,32z"/><path fill="#aa7b79" d="M109.4,20.5l-8.9,9.6l-4.1,6.1c-0.6,0.9-1.6,1.4-2.6,1.5l-2.1,0.1c-1.1,0.1-2.1,0.7-2.6,1.8L87,44.1 l-4.5,3.2l-5.8,2.4c-1.1,0.4-1.9,1.3-2.3,2.4L71.5,60l-6.1,2.1c-2,0.7-3.7,2.2-4.5,4.2l-4,9.4l-14.8,5.6l-16.5,9.5l-10.6,11.8 h104.7c6.7-10,10.6-22.1,10.6-35C130.5,48.8,122.3,32,109.4,20.5z"/><polygon fill="#936363" points="71.5,60 69.8,67.5 73.4,72.9 72.4,80.6 76.4,87.8 74.9,102.5 84.1,102.5 87.3,92.7 80.4,82.6 80.4,74.8 74.5,67.5"/><path fill="#936363" d="M109.4,20.5l-2.8,7.1l1.4,4.2l-2.7,4.7v7.3v4.1l4.1,5.4l2.5,5.5l0.9,2.7l1.8,4.1l2.4,1.8v1.3 c0,0,1.6,4.4,1.6,6.9c0,2.6,0.3,6.3,1.5,8.6c1.2,2.2,2.8,7.3,3.6,8.6c0.2,0.3,0.5,0.7,0.9,1.2c3.8-8.1,5.9-17.1,5.9-26.6 C130.5,48.8,122.3,32,109.4,20.5z"/><path fill="#936363" d="M112.5,86l-5.4-4l-5.8-13.1l-0.9-7.4L96.1,55l-13.6-7.7L90,57.7l-0.4,9.8l6.2,5.8L97.8,86l7.3,5.7 l-0.8,10.8h15.5C121.5,100.2,112.5,86,112.5,86z"/><path fill="#936363" d="M46.9,79.5L44.2,89c0,0-3.7,3.8-4.2,4.6s1.3,3.8,1.3,3.8l-2,5.2H46l3.6-3.8c0,0,0.3-10.7,0.5-11 c0.2-0.2,4-5.1,4-5.1l3-7L46.9,79.5z"/><path fill="#fff" d="M109.4,20.5l-8.9,9.6l-4.1,6.1c-0.6,0.9-1.6,1.4-2.6,1.5l-2.1,0.1c-1.1,0.1-2.1,0.7-2.6,1.8L87,44.1 l-4.5,3.2l-5.8,2.4c-1.1,0.4-1.9,1.3-2.3,2.4l-2.2,6c-0.4,1.2-1.3,2.1-2.5,2.5l-4.2,1.5c-2,0.7-3.7,2.2-4.5,4.2l-2.2,5.1 c-1.2,2.7-3.4,4.9-6.1,5.9l-10.5,3.9l-16.5,9.5l-10.6,11.8h6.2L29,94l10.5-6v3c0,1.6,1.4,2.8,3.1,2.5c1.2-0.2,2.1-1.4,2.1-2.6 V85l0.8-0.5l6.9-2.6v5.2c0,1.1,0.9,2,2,2c1.1,0,2-0.9,2-2v-6.7c2.5-1.1,4.6-3.1,5.6-5.7l2.2-5.1c0.8-2,2.5-3.5,4.5-4.2l1-0.4 v5.6c0,1.6,1.5,2.9,3.1,2.5c1.2-0.2,2.1-1.4,2.1-2.6v-8.1c0.2-0.3,0.4-0.6,0.5-1l2.2-6c0.4-1.1,1.2-1.9,2.3-2.4l0.4-0.2v11.5 c0,0.8,0.8,1.5,1.6,1.3c0.6-0.1,1.1-0.7,1.1-1.4v-7.8c0,1.2,1.1,2.2,2.3,2c1-0.2,1.7-1.1,1.7-2.1v-6.7l3.2-2.3l1.4-3.1 c0.8-1.8,2.5-3,4.4-3.4v11.5c0,1.6,1.5,2.9,3.1,2.5c1.2-0.2,2.1-1.4,2.1-2.6V37l2.5-3.7l9-9.6C112.8,23.7,110.9,21.8,109.4,20.5 z"/><g><path fill="#5befa5" d="M67.5,130.5c21.8,0,41-11.1,52.4-28H15.1C26.4,119.4,45.7,130.5,67.5,130.5z"/></g><path fill="#fff" d="M45.7,19.9c0.1-1.4-0.9-2.5-2.3-2.5c0-1.7-1.4-3.1-3.1-3.1c-0.7,0-1.3,0.2-1.8,0.6c-0.4-1-1.2-1.7-2.2-2.1 c-4.4,2.5-8.6,5.6-12.2,9.1h19.2C44.5,21.9,45.6,21,45.7,19.9z"/><g><path fill="#29c175" d="M34.1,113c-0.1,0-0.2,0-0.2,0c-0.4-0.1-0.6-0.5-0.5-0.9v0c0,0-0.1-0.9-2.2-1.9c-0.4-0.2-0.5-0.6-0.3-1 c0.2-0.4,0.6-0.5,1-0.3c1.2,0.6,2,1.2,2.4,1.8c1.2-1.6,3-2.7,3.1-2.8c0.3-0.2,0.8-0.1,1,0.2c0.2,0.3,0.1,0.8-0.2,1 c0,0-2.6,1.7-3.4,3.5C34.7,112.8,34.4,113,34.1,113z"/><path fill="#29c175" d="M56,113c-0.1,0-0.2,0-0.2,0c-0.4-0.1-0.6-0.5-0.5-0.9v0c0,0-0.1-0.9-2.2-1.9c-0.4-0.2-0.5-0.6-0.3-1 c0.2-0.4,0.6-0.5,1-0.3c1.2,0.6,2,1.2,2.4,1.8c1.2-1.6,3-2.7,3.1-2.8c0.3-0.2,0.8-0.1,1,0.2c0.2,0.3,0.1,0.8-0.2,1 c0,0-2.6,1.7-3.4,3.5C56.6,112.8,56.3,113,56,113z"/><path fill="#29c175" d="M77.9,113c-0.1,0-0.2,0-0.2,0c-0.4-0.1-0.6-0.5-0.5-0.9v0c0,0-0.1-0.9-2.2-1.9c-0.4-0.2-0.5-0.6-0.3-1 c0.2-0.4,0.6-0.5,1-0.3c1.2,0.6,2,1.2,2.4,1.8c1.2-1.6,3-2.7,3.1-2.8c0.3-0.2,0.8-0.1,1,0.2c0.2,0.3,0.1,0.8-0.2,1 c0,0-2.6,1.7-3.4,3.5C78.5,112.8,78.2,113,77.9,113z"/><path fill="#29c175" d="M99.8,113c-0.1,0-0.2,0-0.2,0c-0.4-0.1-0.6-0.5-0.5-0.9v0c0,0-0.1-0.9-2.2-1.9c-0.4-0.2-0.5-0.6-0.3-1 c0.2-0.4,0.6-0.5,1-0.3c1.2,0.6,2,1.2,2.4,1.8c1.2-1.6,3-2.7,3.1-2.8c0.3-0.2,0.8-0.1,1,0.2c0.2,0.3,0.1,0.8-0.2,1 c0,0-2.6,1.7-3.4,3.5C100.4,112.8,100.1,113,99.8,113z"/><g><path fill="#29c175" d="M45.1,121.3c-0.1,0-0.2,0-0.2,0c-0.4-0.1-0.6-0.5-0.5-0.9c0,0,0,0,0,0c0,0-0.1-0.9-2.2-1.9 c-0.4-0.2-0.5-0.6-0.3-1c0.2-0.4,0.6-0.5,1-0.3c1.2,0.6,2,1.2,2.4,1.8c1.2-1.6,3-2.7,3.1-2.8c0.3-0.2,0.8-0.1,1,0.2 c0.2,0.3,0.1,0.8-0.2,1c0,0-2.6,1.7-3.4,3.5C45.6,121.2,45.3,121.3,45.1,121.3z"/><path fill="#29c175" d="M68,124.3c-0.1,0-0.2,0-0.2,0c-0.4-0.1-0.6-0.5-0.5-0.9c0,0,0,0,0,0c0,0-0.1-0.9-2.2-1.9 c-0.4-0.2-0.5-0.6-0.3-1c0.2-0.4,0.6-0.5,1-0.3c1.2,0.6,2,1.2,2.4,1.8c1.2-1.6,3-2.7,3.1-2.8c0.3-0.2,0.8-0.1,1,0.2 s0.1,0.8-0.2,1c0,0-2.6,1.7-3.4,3.5C68.5,124.2,68.3,124.3,68,124.3z"/><path fill="#29c175" d="M88.9,121.3c-0.1,0-0.2,0-0.2,0c-0.4-0.1-0.6-0.5-0.5-0.9c0,0,0,0,0,0c0,0-0.1-0.9-2.2-1.9 c-0.4-0.2-0.5-0.6-0.3-1c0.2-0.4,0.6-0.5,1-0.3c1.2,0.6,2,1.2,2.4,1.8c1.2-1.6,3-2.7,3.1-2.8c0.3-0.2,0.8-0.1,1,0.2 s0.1,0.8-0.2,1c0,0-2.6,1.7-3.4,3.5C89.4,121.2,89.2,121.3,88.9,121.3z"/></g></g><g><path fill="#fff" d="M92.1,20.6h-9.3c1.5,0,2.7-1.2,2.7-2.7c0-1.5-1.2-2.7-2.7-2.7H66.4c-1.5,0-2.7,1.2-2.7,2.7 c0,1.5,1.2,2.7,2.7,2.7h9.3c-1.5,0-2.7,1.2-2.7,2.7c0,1.5,1.2,2.7,2.7,2.7h16.4c1.5,0,2.7-1.2,2.7-2.7 C94.8,21.8,93.6,20.6,92.1,20.6z"/><path fill="#0d4856" d="M67.5,3.8C32.3,3.8,3.8,32.3,3.8,67.5c0,35.3,28.7,63.8,63.8,63.8c37.2,0,63.8-30.4,63.8-63.8 C131.3,31.8,102.1,3.8,67.5,3.8z M96.6,40.4c-0.2-0.1-0.4-0.2-0.6-0.2c-2.3,0.4-4.1,1.8-5,3.8l-1.3,2.9l-3.1,2.2 c-0.2,0.1-0.3,0.4-0.3,0.6v6.7c0,0.7-0.4,1.2-1,1.3c-0.4,0.1-0.8,0-1-0.3c-0.3-0.2-0.4-0.6-0.4-1c0-0.4-0.3-0.8-0.8-0.8 c-0.4,0-0.8,0.3-0.8,0.8v7.8c0,0.3-0.2,0.6-0.5,0.6c-0.3,0.1-0.4,0-0.5-0.1c-0.1-0.1-0.2-0.3-0.2-0.5V52.9 c0-0.3-0.1-0.5-0.3-0.6c-0.2-0.1-0.5-0.2-0.7-0.1l-0.4,0.2c-1.3,0.5-2.2,1.5-2.7,2.8l-2.2,6c-0.1,0.3-0.2,0.5-0.4,0.8 c-0.1,0.1-0.1,0.3-0.1,0.4v8.1c0,0.9-0.6,1.8-1.5,1.9c-1.1,0.2-2.2-0.6-2.2-1.8V65c0-0.2-0.1-0.5-0.3-0.6s-0.5-0.2-0.7-0.1 l-1,0.4c-2.2,0.8-4,2.5-5,4.7l-2.2,5.1c-1,2.4-2.9,4.3-5.2,5.3c-0.3,0.1-0.4,0.4-0.4,0.7v6.7c0,0.7-0.6,1.3-1.3,1.3 c-0.7,0-1.3-0.6-1.3-1.3v-5.2c0-0.3-0.1-0.5-0.3-0.6c-0.2-0.1-0.5-0.2-0.7-0.1l-6.9,2.6c0,0-0.1,0-0.1,0.1l-0.8,0.5 c-0.2,0.1-0.4,0.4-0.4,0.7v5.9c0,0.9-0.6,1.7-1.5,1.9c-0.6,0.1-1.1,0-1.6-0.4c-0.4-0.3-0.7-0.9-0.7-1.4v-3 c0-0.3-0.2-0.5-0.4-0.6c-0.2-0.1-0.5-0.1-0.8,0l-10.5,6c-0.1,0-0.1,0.1-0.2,0.2l-7.4,8.3h-4.2l9.4-10.5l16.3-9.4L52.9,78h0 l4.3-1.6c0.2-0.1,0.3-0.2,0.4-0.4c0.4-1-1.5,3.5,4-9.4c0.8-1.8,2.2-3.2,4.1-3.8l4.2-1.5l1.8-0.6c0.2-0.1,0.4-0.2,0.5-0.5 l0.7-1.8l2.2-6c0.3-0.9,1-1.6,1.9-2l5.8-2.4c0.1,0,0.1-0.1,0.1-0.1l4.5-3.2c0.1,0,0.1-0.1,0.1-0.1c0-0.1,0.1-0.1,0.1-0.2 l2.1-4.7c0.9-1.9,3.1-1.2,4-1.4c0.7,0,1.3-0.2,1.8-0.5c0.3-0.2,0.5-0.3,0.8-0.6c0.2-0.2,0.4-0.5,0.6-0.7l4.1-6l8.3-9 c0.6,0.5,2,1.9,2.3,2.2l-8.5,9.1c0,0,0,0.1-0.1,0.1l-2.5,3.7c-0.1,0.1-0.1,0.3-0.1,0.4v15.3c0,0.9-0.6,1.8-1.5,1.9 c-0.5,0.1-1.1,0-1.5-0.4c-0.4-0.3-0.7-0.9-0.7-1.4V41C96.8,40.8,96.8,40.5,96.6,40.4z M28.9,62.6c-0.3,0.8-1.2,1.5-2.1,1.5 c-1.3,0-2.3-1-2.3-2.3V51.6c0-1.3,1-2.3,2.3-2.3c1.3,0,2.3,1,2.3,2.3V56L28.9,62.6C28.9,62.6,28.9,62.6,28.9,62.6z M29.9,80.5 c0-0.1,0-0.1,0-0.2l0.4-17.4c0.1-0.3,0.2-0.7,0.2-1.1V56l0.1-5.8c0-0.8,0.4-1.5,1-1.9c0,0,0.1-0.1,0.1-0.1 c0.5-0.5,1.2-0.7,1.9-0.7l3.3,0c0.3,0,0.5,0,0.8,0.1c0.3,0.1,0.6,0.2,0.9,0.5c0.3,0.3,0.6,0.6,0.8,1c0,0.1,0.1,0.1,0.1,0.2 l3.8,5.4c0.1,0.1,0.3,0.3,0.4,0.3l6.8,1.6c0.8,0.2,1.4,1,1.2,1.9c-0.2,0.7-0.8,1.2-1.5,1.2c-0.1,0-0.2,0-0.3,0 c-4.1-1.1-8.7-2.5-9.4-2.8c0,0-0.1,0-0.1,0c-0.1,0-0.1-0.1-0.2-0.1c0,0,0,0-0.1,0c0,0,0,0,0,0c0,0-1-0.2-3.2-2.1 c-0.3-0.3-0.8-0.2-1.1,0.1c-0.3,0.3-0.2,0.8,0.1,1.1c1.6,1.4,2.7,2,3.3,2.3l0.3,8.4c0,0.3,0.2,0.5,0.4,0.7l4,1.8 c0.6,0.2,1,0.8,1,1.4l0.5,9l-3.1,1.2l0,0l-0.4-8.5c0-0.3-0.3-0.6-0.6-0.7l-5.7-1.3c-1.4-0.3-2.7,0.7-2.7,2.2v8.7 c0,0.2,0,0.3-0.1,0.5l-1.6,5.4l0,0l-3.9,2.3h0L29.9,80.5z M31.4,33.3c0.7-1.8,2.6-2.8,4.5-2.4l8.4,1.7c0.4,0.1,0.7,0.5,0.6,1 c-0.1,0.6-0.5,1.2-1,1.5c-0.2,0.1-0.4,0.2-0.6,0.3c-0.4,0.1-0.8,0.1-1.2,0.1l-6.4-1.3c-0.8-0.2-1.7,0.1-2.3,0.6 c-0.5,0.4-0.9,1-1,1.6l-0.2,1.1c0,0.2-0.2,0.4-0.3,0.5c-0.2,0.1-0.4,0.2-0.7,0.2c-0.2-0.1-0.4-0.2-0.5-0.4 c-0.1-0.2-0.2-0.4-0.1-0.6c0,0,0-0.1,0-0.1l0.7-3.5c0,0,0,0,0-0.1l0,0C31.3,33.6,31.3,33.4,31.4,33.3z M31.5,39.9l0-0.2 c1-0.1,1.9-0.8,2.1-1.9l0.2-1.1c0.1-0.7,0.8-1.2,1.5-1l6.3,1.3l-1,4.8c-0.5,2.5-3,4.2-5.6,3.7C32.6,44.9,31,42.4,31.5,39.9z M41.1,81L41.1,81l-7.7,4.5l1.1-3.9c0.1-0.3,0.2-0.6,0.2-1V72c0-0.5,0.4-0.8,0.9-0.7l5.1,1.2L41.1,81z M36.3,13.6 c0.7,0.3,1.2,0.9,1.4,1.5c0.2,0.5,0.8,0.6,1.1,0.3c0.4-0.3,0.9-0.5,1.4-0.5c1.3,0,2.4,1.1,2.4,2.4c0,0.4,0.3,0.8,0.8,0.8 c0.9,0,1.5,0.7,1.5,1.5c0,0,0,0.1,0,0.2c-0.1,0.8-0.8,1.4-1.6,1.4H26C29,18.4,32.5,15.9,36.3,13.6z M24.4,22.7h18.9 c0.8,0,1.5-0.3,2.1-0.8c0.6-0.5,0.9-1.2,1-1.9c0.2-1.5-0.8-2.9-2.3-3.2c-0.3-1.8-1.9-3.2-3.8-3.2c-0.5,0-1.1,0.1-1.5,0.3 c-0.3-0.4-0.6-0.7-0.9-1C46.6,8,56.8,5.3,67.5,5.3c15.6,0,29.9,5.8,40.8,15.3c-8.2,8.8-8.4,9-8.4,9.1l-2.6,3.8l-1.5,2.3 c-0.1,0.2-0.3,0.3-0.4,0.5c-0.5,0.4-1,0.7-1.7,0.7l-0.1,0c-0.8,0.3-3.9-0.7-5.2,2.3l-2,4.5l-4.3,3l-2.8,1.2l-2.9,1.2 c-0.5,0.2-0.9,0.5-1.3,0.8c-0.1,0.1-0.3,0.2-0.4,0.3c-0.1,0.1-0.2,0.3-0.3,0.4c-0.3,0.4-0.6,0.8-0.7,1.3L71.5,58 c-0.4,0.9-1.1,1.6-2,1.9l-4.2,1.5c-1.3,0.4-2.4,1.2-3.3,2.1c-0.2,0.2-0.4,0.4-0.6,0.7c-0.5,0.6-0.8,1.2-1.1,1.9l-2.2,5.1 c-0.2,0.5-0.4,0.9-0.7,1.4c-0.2,0.3-0.4,0.6-0.6,0.8c-0.7,0.9-1.6,1.8-2.6,2.4c-0.4,0.3-0.9,0.5-1.4,0.7 c-0.1,0.1-0.3,0.1-0.5,0.2l-5.3,2L46.6,70c-0.1-1.3-0.9-2.3-2-2.7l-3.5-1.5l-0.3-7.3c1.3,0.5,3.8,1.2,8.7,2.6 c0.2,0.1,0.5,0.1,0.7,0.1c1.4,0,2.7-1,3-2.4c0.4-1.6-0.6-3.3-2.3-3.7c-2.4-0.6-6.8-1.6-6.5-1.5l-3.6-5.1 c-0.3-0.6-0.7-1.1-1.1-1.5c-0.2-0.2-0.5-0.4-0.8-0.5c0,0,0,0,0,0c1.7-0.8,2.9-2.4,3.3-4.3l1-5.1c0.5-0.1,1-0.3,1.5-0.6 c0.9-0.6,1.5-1.4,1.7-2.5c0-0.2,0-0.3,0-0.5c0-1.1-0.8-2.1-1.9-2.3l-8.4-1.7c-2.7-0.6-5.4,1-6.3,3.5c0,0.1-0.1,0.1-0.1,0.2 l-0.7,3.6c-0.1,0.6,0,1.3,0.3,1.8c0.2,0.3,0.4,0.5,0.7,0.7l0,0.2c-0.5,2.6,0.7,5.2,2.8,6.5c0,0,0,0,0,0c-0.7,0.1-1.4,0.5-2,1 c-0.7,0.5-1.2,1.1-1.5,1.9c-0.7-0.7-1.6-1.1-2.7-1.1c-2.1,0-3.8,1.7-3.8,3.8v10.2c0,2.1,1.7,3.8,3.8,3.8c0.8,0,1.5-0.2,2.1-0.6 c0,0,0,0,0,0l-0.4,15.2l-2.6,9.2c-0.1,0.2-0.1,0.3-0.1,0.5l0,0l-0.4,0.2c-0.1,0-0.1,0.1-0.2,0.1l-9.9,11.1 c-6.3-9.7-10-21.3-10-33.8C5.3,49.9,12.6,34,24.4,22.7z M67.5,129.8c-20.3,0-39.2-9.8-50.9-26.5c15.2,0,92.1,0,101.8,0 C107.5,118.7,88.8,129.8,67.5,129.8z M119.4,101.8H23l6.4-7.2l9.3-5.3V91c0,2.1,1.9,3.7,4,3.3c1.6-0.3,2.7-1.7,2.7-3.4v-5.5 l0.4-0.2l5.9-2.2v4.1c0,1.5,1.2,2.8,2.8,2.8c1.5,0,2.8-1.3,2.8-2.8v-6.2c2.5-1.2,4.5-3.3,5.6-5.9l2.2-5.1 c0.8-1.8,2.2-3.2,4.1-3.8l0.1,0v4.6c0,2.1,2,3.7,4,3.3c1.5-0.3,2.7-1.7,2.7-3.4v-7.9c0.2-0.3,0.4-0.6,0.5-0.9l2.2-6 c0.2-0.6,0.7-1.2,1.2-1.6v10.3c0,1.3,1.2,2.3,2.5,2.1c1-0.2,1.7-1.1,1.7-2.1v-5.4c0.5,0.3,1.1,0.4,1.7,0.3 c1.3-0.2,2.3-1.4,2.3-2.8v-6.3l2.9-2.1c0.1-0.1,0.2-0.2,0.3-0.3l1.4-3.1c0.6-1.3,1.6-2.2,3-2.7v10.5c0,2.1,1.9,3.7,4,3.3 c1.5-0.3,2.7-1.7,2.7-3.4V37.3l2.4-3.5l8.4-9c10.6,11.1,17,26.3,17,42.7C129.8,79.9,126,92,119.4,101.8z"/><path fill="#0d4856" d="M66.5,21.3h6.4c-0.4,0.6-0.6,1.2-0.6,2c0,1.9,1.6,3.5,3.5,3.5h16.4c1.9,0,3.5-1.6,3.5-3.5 c0-1.9-1.6-3.5-3.5-3.5h-6.4c0.4-0.6,0.6-1.2,0.6-2c0-1.9-1.6-3.5-3.5-3.5H66.5c-1.9,0-3.5,1.6-3.5,3.5S64.5,21.3,66.5,21.3z M66.5,15.9h16.4c1.1,0,2,0.9,2,2c0,1.1-0.9,2-2,2c-0.4,0-0.8,0.3-0.8,0.8c0,0.4,0.3,0.8,0.8,0.8h9.3c1.1,0,2,0.9,2,2 c0,1.1-0.9,2-2,2H75.7c-1.1,0-2-0.9-2-2c0-1.1,0.9-2,2-2c0.4,0,0.8-0.3,0.8-0.8c0-0.4-0.3-0.8-0.8-0.8h-9.3c-1.1,0-2-0.9-2-2 C64.5,16.8,65.4,15.9,66.5,15.9z"/></g></svg>