<svg xmlns="http://www.w3.org/2000/svg" xmlns:xlink="http://www.w3.org/1999/xlink" viewBox="0,0,256,256" width="65px" height="65px" fill-rule="nonzero"><g fill-opacity="0" fill="#339af0" fill-rule="nonzero" stroke="none" stroke-width="1" stroke-linecap="butt" stroke-linejoin="miter" stroke-miterlimit="10" stroke-dasharray="" stroke-dashoffset="0" font-family="none" font-weight="none" font-size="none" text-anchor="none" style="mix-blend-mode: normal"><path d="M128,256c-70.69245,0 -128,-57.30755 -128,-128v0c0,-70.69245 57.30755,-128 128,-128v0c70.69245,0 128,57.30755 128,128v0c0,70.69245 -57.30755,128 -128,128z" id="shape"></path></g><g fill="none" fill-rule="nonzero" stroke="none" stroke-width="1" stroke-linecap="butt" stroke-linejoin="miter" stroke-miterlimit="10" stroke-dasharray="" stroke-dashoffset="0" font-family="none" font-weight="none" font-size="none" text-anchor="none" style="mix-blend-mode: normal"><g transform="scale(1.8963,1.8963)"><g id="_x39_"><path d="M131.5,67.49671c0,34.52755 -27.40694,63.00323 -62.20996,63.97999c-38.09848,0.71277 -65.79004,-29.65308 -65.79004,-63.97999c0,-35.33997 28.66003,-63.98999 64,-63.98999c35.3501,0 64,28.65002 64,63.98999z" fill="#9ee6ff"></path><path d="M116.71062,67.5c0,0.29525 0,0.59872 -0.00821,0.89401c-0.47577,26.77876 -22.31699,48.31661 -49.20242,48.31661c-23.99839,0 -43.97799,-17.1663 -48.32487,-39.90163c-0.5824,-3.01004 -0.88576,-6.1267 -0.88576,-9.30899c0,-27.17247 22.02995,-49.21062 49.21062,-49.21062c27.18058,0 49.21062,22.03815 49.21062,49.21062z" fill="#76d8ff"></path><path d="M99.05197,62.77793c-0.4909,1.9633 0.07076,4.04206 1.48621,5.49513l2.1218,2.17339l-0.5201,2.0801l9.47741,2.36969l0.90393,-3.61517c1.10132,-1.07201 1.8897,-2.42909 2.28467,-3.91408l0.00557,0.00139l2.09434,-8.37605c0.10986,-0.43937 0.03204,-0.88433 -0.18488,-1.24584c-0.2224,-0.36292 -0.57702,-0.6466 -1.01636,-0.75645c-0.88438,-0.22113 -1.78268,0.32253 -2.0024,1.20127l0.23641,-0.94551c0.10986,-0.43937 0.02647,-0.88569 -0.18905,-1.2528c-0.21684,-0.36152 -0.57285,-0.63961 -1.01219,-0.74946c-0.88438,-0.22113 -1.78824,0.32111 -2.00796,1.19984l0.31707,-1.26807c0.11125,-0.44493 0.03204,-0.88433 -0.18342,-1.25138c-0.22247,-0.36293 -0.57291,-0.63966 -1.01782,-0.7509c-0.88438,-0.22113 -1.78127,0.31693 -2.0024,1.20127l-0.31706,1.26807c0.10986,-0.43937 0.02653,-0.88567 -0.18342,-1.25139c-0.22247,-0.36293 -0.57842,-0.641 -1.01783,-0.75087c-0.88438,-0.22113 -1.78816,0.32112 -2.00788,1.19986l-0.97189,3.89115l-2.91293,-0.87639z" fill="#ffc27c"></path><rect x="50.858" y="66.906" width="31.751" height="13.795" fill="#24272b"></rect><path d="M112.06006,73.12672c0,0 -0.27002,1.82001 -0.67993,4.48999c-1.96008,12.78003 -10.65015,23.52002 -22.72009,28.10999v22.18005c0,0 0,0 -0.00989,0c-6.09009,2.13996 -12.59009,3.37995 -19.36011,3.56995c-1.07007,0.02002 -2.13,0.02002 -3.18994,0.01001c-5.63013,-0.12 -11.08008,-0.96997 -16.26001,-2.45996c-1.45996,-0.42004 -2.90002,-0.89001 -4.31006,-1.41004c-0.01001,0 -0.01001,-0.01001 -0.01001,-0.01001v-21.88c-5.96997,-2.26996 -11.10999,-6.04999 -15.02002,-10.82996c-4,-4.89001 -6.37988,-10.88 -7.69995,-17.28003c-0.67993,-3.29999 -0.82007,-10.65997 2.03003,-11.15997c2.77002,-0.48999 5.57996,0.09998 6.67993,2.70996l0.54004,3.38c1.14001,7.14001 2.46997,13.56 7.58008,18.35004c2.6499,2.5 8.36987,3.83997 12.01001,3.83997h30.8999c3.64001,0 7.17993,-1.33997 9.84009,-3.83997c5.10986,-4.79004 8.60986,-11.21002 9.75,-18.35004l0.54993,-3.38c1.09998,-2.60999 4.07996,-3.81 6.67004,-2.70996c2.59998,1.08997 3.80994,4.08997 2.70996,6.66998z" fill="#ffc27c"></path><path d="M69.48027,131.46457c-0.06006,0.01001 -0.13,0.01001 -0.18994,0.01001c-1.07007,0.02002 -2.13013,0.02002 -3.19006,0.01001c-5.63,-0.12 -11.07996,-0.96997 -16.26001,-2.46002c-1.45996,-0.41998 -2.90002,-0.88995 -4.30994,-1.40997c-0.01001,0 -0.01001,-0.01001 -0.01001,-0.01001v-21.88c-5.96997,-2.26996 -11.11011,-6.04999 -15.02002,-10.83002c-4,-4.88995 -6.38,-10.87994 -7.69995,-17.27997c-0.68005,-3.29999 -0.82007,-10.65997 2.02991,-11.15997c1.24011,-0.22003 2.4801,-0.22003 3.57996,0.06995c-2.57996,0.90002 -2.42993,7.90002 -1.77002,11.09003c1.32007,6.40002 3.70007,12.39001 7.70007,17.27997c3.91003,4.78003 9.04993,8.56006 15.02002,10.83002v21.88c0,0 0,0.01001 0.01001,0.01001c1.41003,0.52002 2.84998,0.98999 4.30994,1.40997c5.04004,1.45001 10.33008,2.29004 15.80005,2.44z" fill="#f7b26d"></path><path d="M76.04373,94.73371v3.01824c0,2.58224 -1.06779,4.92506 -2.75648,6.61401c-1.69986,1.69985 -4.04268,2.72402 -6.6031,2.72402c-5.14293,0 -9.34894,-4.17329 -9.34894,-9.33804v-3.01824z" fill="#ffffff"></path><path d="M88.65015,113.02674v14.88c-6.09009,2.13996 -12.59009,3.37995 -19.36011,3.56995c-1.07007,0.02002 -2.13,0.02002 -3.18994,0.01001c-5.63013,-0.12 -11.08008,-0.96997 -16.26001,-2.45996c-1.45996,-0.42004 -2.90002,-0.89001 -4.31006,-1.41004c-0.01001,0 -0.01001,-0.01001 -0.01001,-0.01001v-14.64996l6.41003,-18.22003h5.41003v3.02002c0,5.15997 4.19995,9.33002 9.33997,9.33002c2.55994,0 4.91003,-1.02002 6.60999,-2.72003c1.68994,-1.69 2.75,-4.02997 2.75,-6.60999v-3.02002h6.16003z" fill="#43a1ff"></path><path d="M56.23999,94.7367l-6.3999,18.22003v16.07002c-1.45996,-0.42004 -2.90002,-0.89001 -4.31006,-1.41004v-14.65997l6.40002,-18.22003h4.30994z" fill="#2c8cff"></path><path d="M61.28161,93.15669v4.80941c0,2.98946 2.42905,5.40678 5.40703,5.40678c1.48304,0 2.83752,-0.59561 3.81873,-1.57657c0.98087,-0.98087 1.59953,-2.33552 1.59953,-3.83021v-4.80941z" fill="#ffc27c"></path><path d="M72.11406,93.15125v4.81906c0,1.48273 -0.62878,2.85264 -1.61169,3.81972c-0.0484,0.0483 -0.11293,0.11283 -0.17746,0.16113c0.16132,-0.51575 0.25793,-1.06367 0.25793,-1.62783v-0.00001c0,-2.66144 -2.15752,-4.81895 -4.81896,-4.81895h-4.48038v-2.35312z" fill="#f7b26d"></path><path d="M79.25616,82.38074c0,6.67931 -5.03413,12.51961 -11.6915,12.94457c-7.28956,0.47943 -13.35863,-5.3064 -13.35863,-12.48695v-12.15671h25.05013z" fill="#ffc27c"></path><path d="M59.66635,90.91657c-0.22351,0 -0.44588,-0.08509 -0.61606,-0.25527c-1.0313,-1.03187 -1.83569,-2.23222 -2.38935,-3.56871c-0.18493,-0.44474 0.0261,-0.95472 0.47084,-1.13908c0.44361,-0.18493 0.95528,0.02666 1.13795,0.47083c0.46743,1.1249 1.14362,2.13578 2.01268,3.00484c0.34036,0.34036 0.34036,0.89232 0,1.23212c-0.17018,0.17018 -0.39368,0.25527 -0.61605,0.25527z" fill="#ffffff" opacity="0.3"></path><path d="M56.7812,85.08728c-0.43113,0 -0.80553,-0.31937 -0.86225,-0.75787c-0.03857,-0.29044 -0.06694,-0.58373 -0.08282,-0.8787c-0.02609,-0.48048 0.34263,-0.89119 0.82368,-0.91728c0.48672,-0.01475 0.89062,0.34264 0.91671,0.82311c0.01361,0.25073 0.03744,0.49976 0.06921,0.74596c0.06353,0.47707 -0.27343,0.91501 -0.74994,0.97741c-0.03857,0.0051 -0.07715,0.00737 -0.11459,0.00737z" fill="#ffffff" opacity="0.3"></path><path d="M70.73087,76.68069v1.84122c0,1.20486 0.97673,2.18159 2.18159,2.18159v0c1.20486,0 2.18159,-0.97673 2.18159,-2.18159v-1.84122c0,-1.20486 -0.97673,-2.18159 -2.18159,-2.18159v0c-1.20486,0 -2.18159,0.97673 -2.18159,2.18159z" fill="#000000"></path><path d="M58.37059,76.68069v1.84122c0,1.20486 0.97673,2.18159 2.18158,2.18159h0.00001c1.20485,0 2.18158,-0.97673 2.18158,-2.18159v-1.84122c0,-1.20486 -0.97673,-2.18159 -2.18158,-2.18159h-0.00001c-1.20485,0 -2.18158,0.97673 -2.18158,2.18159z" fill="#000000"></path><path d="M66.73227,82.96262c-0.45117,0 -0.81721,-0.36604 -0.81721,-0.81721v-1.95258c0,-0.45116 0.36604,-0.81721 0.81721,-0.81721c0.45116,0 0.81721,0.36604 0.81721,0.81721v1.95258c0,0.45116 -0.36604,0.81721 -0.81721,0.81721z" fill="#000000"></path><path d="M79.25616,70.40593v1.28573c-4.70719,-0.39224 -9.23988,-0.59927 -13.51119,-0.59927c-3.98801,0 -7.85618,0.17431 -11.53894,0.52299v-1.20945c0,-2.44072 1.98303,-4.42381 4.42375,-4.42381h16.2025c2.44072,0 4.42388,1.98309 4.42388,4.42381z" fill="#f7b26d"></path><path d="M71.19302,88.24284c-0.19619,0.52299 -0.4795,1.00243 -0.82812,1.41648c-0.8716,1.02424 -2.16831,1.66714 -3.62835,1.66714c-1.46017,0 -2.75675,-0.65381 -3.6394,-1.67805c-0.34862,-0.41405 -0.63193,-0.89349 -0.82811,-1.40557c-0.29422,-0.78455 0.30512,-1.6126 1.14414,-1.6126h6.63569c0.83902,0 1.43822,0.82805 1.14414,1.6126z" fill="#000000"></path><path d="M69.2116,89.3271c-0.59498,0.69917 -1.48015,1.13803 -2.47681,1.13803c-0.99675,0 -1.88183,-0.4463 -2.48434,-1.14548c0.59507,-0.69917 1.48015,-1.14543 2.4769,-1.14543c0.99667,0 1.88927,0.44626 2.48425,1.15288z" fill="#ef567b"></path><g fill="#ffffff" opacity="0.5"><path d="M82.00146,124.68003v-11.68006c0,-0.81139 0.65729,-1.46796 1.46796,-1.46796c0.81068,0 1.46796,0.65657 1.46796,1.46796v11.68006c0,0.81139 -0.65729,1.46796 -1.46796,1.46796c-0.81068,0 -1.46796,-0.65657 -1.46796,-1.46796z" opacity="0.4"></path></g><path d="M61.78996,77.03078c0,0.4249 -0.34875,0.77358 -0.77371,0.77358c-0.43587,0 -0.77358,-0.34869 -0.77358,-0.77358c0,-0.42496 0.33771,-0.77364 0.77358,-0.77364c0.42496,0 0.77371,0.34868 0.77371,0.77364z" fill="#ffffff"></path><path d="M74.23621,76.60036c0,0.4249 -0.34875,0.77358 -0.77371,0.77358c-0.43587,0 -0.77358,-0.34868 -0.77358,-0.77358c0,-0.42496 0.33772,-0.77364 0.77358,-0.77364c0.42496,0 0.77371,0.34869 0.77371,0.77364z" fill="#ffffff"></path><path d="M79.26002,73.77423c-0.00136,0 -0.0025,0.00041 -0.00386,0.00041v9.30066c0.00136,0 0.0025,0.00042 0.00386,0.00042c2.56475,0 4.6507,-2.08595 4.6507,-4.6507c0,-2.56475 -2.08595,-4.6508 -4.6507,-4.6508z" fill="#ffc27c"></path><path d="M83.02831,75.72007c-0.01091,0 -0.01091,-0.01091 -0.02181,-0.01091c-1.11143,-0.78448 -2.64795,0.10894 -2.64795,1.47095v5.75317c-0.34848,0.09803 -0.71905,0.14166 -1.10025,0.14166v-9.30531c1.55807,0 2.94189,0.77358 3.77001,1.95045z" fill="#f7b26d"></path><g fill="#ffc27c"><path d="M54.20485,73.77423c0.00136,0 0.00251,0.00041 0.00386,0.00041v9.30066c-0.00135,0 -0.0025,0.00042 -0.00386,0.00042c-2.56475,0 -4.6507,-2.08595 -4.6507,-4.6507c0,-2.56475 2.08595,-4.6508 4.6507,-4.6508z"></path></g><g fill="#f7b26d"><path d="M50.4387,75.72007c0.01091,0 0.01091,-0.01091 0.02182,-0.01091c1.11142,-0.78448 2.64794,0.10894 2.64794,1.47095v5.75317c0.34848,0.09803 0.71905,0.14166 1.10025,0.14166v-9.30531c-1.55807,0 -2.94189,0.77358 -3.77001,1.95045z"></path></g><g fill="#24272b"><path d="M66.72817,95.69459c-1.56756,0.07974 -3.1689,-0.03515 -4.7245,-0.43477c-1.55515,-0.40035 -3.04158,-1.07935 -4.42021,-1.9466c-1.36961,-0.87481 -2.66097,-1.9511 -3.63736,-3.28654c-0.94011,-1.35045 -1.77197,-2.79955 -2.26423,-4.38036c-0.50614,-1.56845 -0.80767,-3.20885 -0.82214,-4.8597l-0.00883,-4.71365v-9.4098v-0.78629h0.78624h30.19185h0.78624v0.78629v9.4098l-0.00883,4.71365c-0.01446,1.65084 -0.31599,3.29124 -0.82214,4.8597c-0.49085,1.5816 -1.32591,3.02899 -2.26615,4.37898c-0.98957,1.32426 -2.26923,2.40797 -3.64088,3.28038c-1.37747,0.86723 -2.86275,1.54643 -4.41702,1.9472c-1.55489,0.39884 -3.1545,0.51817 -4.72226,0.44171c1.57089,-0.12726 3.0945,-0.48521 4.53634,-1.01895c1.43903,-0.55143 2.75822,-1.35396 3.93499,-2.29678c1.19738,-0.92891 2.15765,-2.10332 3.01721,-3.30723c0.8968,-1.17963 1.61644,-2.50842 2.06686,-3.92479c0.45367,-1.41244 0.72802,-2.8879 0.74081,-4.37817l0.00871,-4.6957v-9.4098l0.78612,0.78606h-30.19185l0.78611,-0.78606v9.4098l0.0087,4.6957c0.0128,1.49026 0.28714,2.96573 0.74082,4.37817c0.44901,1.41714 1.17185,2.74423 2.06871,3.9234c0.43429,0.60221 0.90409,1.17674 1.38324,1.75407c0.51638,0.54063 1.04184,1.08087 1.63755,1.547c1.17562,0.94279 2.49366,1.74554 3.93179,2.29737c1.44107,0.53297 2.96308,0.89537 4.5341,1.0259z"></path></g><g fill="#fc545d"><path d="M81.87474,70.59675c-10.11141,2.77856 -20.20856,2.78802 -30.2914,0.00477c-2.54831,-0.70344 -4.08335,-3.35432 -3.44265,-5.91911c2.08194,-8.33417 9.61609,-14.50559 18.58713,-14.50559c8.97785,0 16.51174,6.16804 18.59631,14.49875c0.64239,2.56723 -0.89759,5.21997 -3.44939,5.92119z"></path></g><g fill="#f14448"><path d="M81.87615,70.6016c-10.11417,2.77289 -20.20567,2.78426 -30.29716,0c-2.54559,-0.70458 -4.07981,-3.35248 -3.44341,-5.92082c0.0455,-0.15905 0.07956,-0.31816 0.13637,-0.47728c0.50003,1.47734 1.70464,2.69333 3.30705,3.13655c10.0915,2.78427 20.18299,2.7729 30.29716,0c1.6024,-0.44322 2.80701,-1.65921 3.31835,-3.14793c0.0455,0.15912 0.07956,0.31823 0.12506,0.48866c0.64777,2.55697 -0.89783,5.21624 -3.44341,5.92082z"></path></g><g fill="#f14448"><path d="M59.69086,51.5103v6.08242c0,1.3131 -1.06533,2.37842 -2.37843,2.37842c-0.65659,0 -1.25117,-0.26017 -1.68471,-0.69371c-0.43362,-0.43362 -0.69371,-1.0282 -0.69371,-1.68471v-3.3447c1.43694,-1.12733 3.03501,-2.05641 4.75685,-2.73772z"></path><path d="M69.10558,50.32112v13.46546c0,1.3131 -1.06541,2.37843 -2.3785,2.37843c-0.65651,0 -1.2511,-0.26017 -1.67232,-0.69371c-0.43354,-0.43362 -0.69371,-1.02821 -0.69371,-1.68472v-13.46546c0.76804,-0.09912 1.56087,-0.14872 2.36603,-0.14872c0.80523,0 1.59807,0.0496 2.3785,0.14872z"></path><path d="M78.52023,54.23561v3.35711c0,1.3131 -1.05293,2.37842 -2.36602,2.37842c-0.65659,0 -1.25117,-0.26017 -1.68479,-0.69371c-0.42114,-0.43362 -0.69371,-1.0282 -0.69371,-1.68471v-6.08242c1.72192,0.66898 3.3199,1.59806 4.74452,2.72532z"></path></g><g fill="#24272b"><path d="M107.85332,66.80203c-0.46875,0 -0.91699,-0.21973 -1.20312,-0.60352l-22.3291,-29.96094c-0.49512,-0.66455 -0.35742,-1.604 0.30664,-2.09912c0.66504,-0.49512 1.60352,-0.3584 2.09961,0.30615l20.55664,27.58301l6.38379,-20.92871c0.24219,-0.79297 1.08301,-1.2368 1.87207,-0.99707c0.79297,0.2417 1.23926,1.07959 0.99707,1.87207l-7.24902,23.76563c-0.16504,0.54102 -0.62012,0.94336 -1.17773,1.04053c-0.08594,0.01465 -0.17187,0.02197 -0.25684,0.02197z"></path></g><g fill="#24272b"><path d="M107.85332,66.80203c-0.46875,0 -0.91699,-0.21973 -1.20312,-0.60352l-22.3291,-29.96094c-0.49512,-0.66455 -0.35742,-1.604 0.30664,-2.09912c0.66504,-0.49512 1.60352,-0.3584 2.09961,0.30615l20.55664,27.58301l6.38379,-20.92871c0.24219,-0.79297 1.08301,-1.2368 1.87207,-0.99707c0.79297,0.2417 1.23926,1.07959 0.99707,1.87207l-7.24902,23.76563c-0.16504,0.54102 -0.62012,0.94336 -1.17773,1.04053c-0.08594,0.01465 -0.17187,0.02197 -0.25684,0.02197z"></path></g><g fill="#ffc27c"><path d="M99.05197,62.77793l1.58735,-5.67385c0.23249,-0.82952 1.10052,-1.30672 1.92548,-1.05852l0.00001,0c0.78893,0.23736 1.25106,1.05387 1.04844,1.85244l-1.23405,4.6383"></path></g><g fill="#ffc27c"><path d="M35.71534,63.22158c0.38592,1.98661 -0.28538,4.0326 -1.77605,5.40843l-2.23427,2.05759l0.40888,2.1048l-9.59002,1.86283l-0.71062,-3.65809c-1.04283,-1.12901 -1.75801,-2.52606 -2.07354,-4.02995l-0.00563,0.0011l-1.64645,-8.47551c-0.08636,-0.44458 0.01498,-0.88478 0.2508,-1.23426c0.24138,-0.35059 0.61056,-0.61504 1.05512,-0.70139c0.89489,-0.17383 1.76305,0.41679 1.93578,1.30596l-0.18586,-0.95674c-0.08637,-0.44459 0.02062,-0.88585 0.25534,-1.24099c0.23574,-0.34949 0.60603,-0.60828 1.05059,-0.69463c0.89489,-0.17383 1.76867,0.41566 1.9414,1.30483l-0.24926,-1.28313c-0.08746,-0.45022 0.01498,-0.88478 0.24963,-1.23988c0.24145,-0.3506 0.60609,-0.60832 1.05628,-0.69577c0.89489,-0.17383 1.76194,0.41112 1.93578,1.30596l0.24926,1.28313c-0.08636,-0.44458 0.02055,-0.88583 0.24964,-1.23988c0.24145,-0.3506 0.61166,-0.60937 1.05629,-0.69574c0.89489,-0.17383 1.7686,0.41567 1.94134,1.30484l0.76382,3.9373l2.9554,-0.72039z"></path></g><g fill="#f7b26d"><path d="M26.09026,73.96457l-3.56995,0.69l-0.70996,-3.65997c-1.04004,-1.13 -1.76001,-2.52002 -2.07007,-4.03003h-0.01001l-1.64001,-8.46997c-0.08997,-0.45001 0.01001,-0.89001 0.25,-1.23999c0.23999,-0.35004 0.60999,-0.61005 1.04993,-0.70001c0.90015,-0.16998 1.77002,0.41998 1.94006,1.31l-0.19006,-0.96002c-0.06982,-0.35999 -0.00989,-0.71997 0.14014,-1.02997l2.03003,10.46997c0.31995,1.51001 1.02991,2.90002 2.07983,4.03003z"></path></g><g fill="#24272b"><path d="M24.56614,66.80202c-0.12598,0 -0.25293,-0.01611 -0.37891,-0.04883c-0.56055,-0.146 -0.98633,-0.60254 -1.09473,-1.17139l-4.50586,-23.74463c-0.1543,-0.81396 0.37988,-1.59912 1.19434,-1.75342c0.80762,-0.15723 1.59766,0.38037 1.75293,1.19385l3.91602,20.63818l23.12207,-27.53906c0.53125,-0.63428 1.47852,-0.7168 2.11328,-0.18457c0.63379,0.53271 0.7168,1.479 0.18359,2.11328l-25.1543,29.96094c-0.28906,0.34424 -0.71191,0.53564 -1.14844,0.53564z"></path></g><g fill="#ffc27c"><path d="M35.71534,63.22158l-1.28372,-5.75019c-0.1881,-0.84071 -1.02957,-1.36335 -1.86655,-1.15932h0c-0.80044,0.19511 -1.3053,0.98592 -1.14538,1.79412l0.98592,4.69732"></path></g><g fill="#ffbc50"><path d="M116.77374,40.74387c0,0.80789 -0.04446,1.60703 -0.13343,2.40032c-14.30891,-5.67852 -31.09062,-8.94507 -49.03458,-8.94507c-17.94397,0 -34.72567,3.26655 -49.03459,8.94507c-0.08895,-0.79329 -0.13343,-1.59243 -0.13343,-2.40032c0,-17.80849 22.01487,-32.24252 49.16802,-32.24252c27.1561,0 49.168,14.43403 49.168,32.24252z"></path></g><g fill="#43a1ff"><path d="M67.5248,8.54952c27.15613,0 49.16802,14.43403 49.16802,32.24252c0,0.80789 -0.04448,1.60703 -0.13342,2.40032c-9.45528,-3.75361 -19.98979,-6.45142 -31.22702,-7.85136c-5.76684,-0.71748 -11.7205,-1.09371 -17.80758,-1.09371z"></path></g><g fill="#2c8cff"><path d="M116.69009,40.78808c0,0.60689 -0.019,1.21384 -0.0759,1.81144c-1.39534,-16.9846 -22.83855,-30.47705 -49.08481,-30.47705v-3.57621c27.14798,0 49.16071,14.43553 49.16071,32.24182z"></path></g><g fill="#fc545d"><path d="M67.5248,34.24728c-6.08409,0 -12.03775,0.37623 -17.80461,1.09371c-11.23722,1.39994 -21.7747,4.09776 -31.22998,7.85136c-0.08895,-0.7933 -0.13341,-1.59243 -0.13341,-2.40032c0,-17.80849 22.01487,-32.24252 49.168,-32.24252z"></path></g><g fill="#f14448"><path d="M67.52939,8.54626v3.57621c-26.25576,0 -47.69886,13.49245 -49.0942,30.47705c-0.05689,-0.5976 -0.0759,-1.20455 -0.0759,-1.81144c0,-17.80629 22.01261,-32.24182 49.1701,-32.24182z"></path></g><g fill="#ffbc50"><path d="M85.33237,32.44777v2.89322c-5.76684,-0.71748 -11.7205,-1.09371 -17.80758,-1.09371c-6.08409,0 -12.03775,0.37623 -17.80461,1.09371v-2.89322c0,-8.00595 4.17468,-15.45192 11.06229,-19.71885l6.74232,-4.17941l6.7453,4.17941c6.88763,4.26692 11.06228,11.7129 11.06228,19.71885z"></path></g><g fill="#ffb32c"><path d="M85.33697,32.44986v2.89455h-0.0095c-0.22781,-7.74997 -4.36644,-14.89305 -11.05856,-19.03882l-6.73952,-4.1831l-6.74902,4.1831c-6.68262,4.14577 -10.82114,11.28885 -11.04906,19.03882h-0.00938v-2.89455c0,-8.01144 4.17652,-15.45332 11.05845,-19.72049l6.74902,-4.1831l6.73952,4.1831c6.89143,4.26717 11.06806,11.70904 11.06806,19.72049z"></path></g><g fill="#ffffff" opacity="0.3"><path d="M54.91972,30.97439c-0.05957,0 -0.11816,-0.00439 -0.17773,-0.01318c-0.65625,-0.09717 -1.1084,-0.70752 -1.01074,-1.36328c0.83301,-5.61963 4.13281,-10.59082 9.05273,-13.63867c0.56055,-0.34961 1.30176,-0.17627 1.65234,0.38818c0.34863,0.56348 0.1748,1.30273 -0.38867,1.65186c-4.31738,2.67529 -7.21289,7.03125 -7.94336,11.95117c-0.08789,0.5957 -0.60059,1.02393 -1.18457,1.02393z"></path></g></g></g></g></svg>