<svg xmlns="http://www.w3.org/2000/svg" xmlns:xlink="http://www.w3.org/1999/xlink" viewBox="0,0,256,256" width="64px" height="64px" fill-rule="nonzero"><g fill="#339af0" fill-rule="nonzero" stroke="none" stroke-width="1" stroke-linecap="butt" stroke-linejoin="miter" stroke-miterlimit="10" stroke-dasharray="" stroke-dashoffset="0" font-family="none" font-weight="none" font-size="none" text-anchor="none" style="mix-blend-mode: normal"><path d="M128,256c-70.69245,0 -128,-57.30755 -128,-128v0c0,-70.69245 57.30755,-128 128,-128v0c70.69245,0 128,57.30755 128,128v0c0,70.69245 -57.30755,128 -128,128z" id="shape"></path></g><g fill="none" fill-rule="nonzero" stroke="none" stroke-width="1" stroke-linecap="butt" stroke-linejoin="miter" stroke-miterlimit="10" stroke-dasharray="" stroke-dashoffset="0" font-family="none" font-weight="none" font-size="none" text-anchor="none" style="mix-blend-mode: normal"><g transform="scale(4,4)"><g><path d="M60.94946,2.00388c-0.04194,0.00191 -0.08371,0.00645 -0.12508,0.01361c0,0 -22.26993,4.01413 -38.53517,20.27932c-16.2653,16.26519 -20.26951,38.52539 -20.26951,38.52539c-0.05649,0.32121 0.04718,0.64979 0.2778,0.8804c0.23061,0.23062 0.55919,0.3343 0.8804,0.27781c0,0 22.2621,-4.00436 38.52738,-20.26952c16.26528,-16.26516 20.27733,-38.5332 20.27733,-38.5332c0.0532,-0.29964 -0.03292,-0.60721 -0.23399,-0.83566c-0.20107,-0.22845 -0.49522,-0.35292 -0.79919,-0.33818z" fill="#fc6067"></path><path d="M38.99532,20.29574c-1.90072,0.12336 -3.76722,0.56503 -5.52165,1.30659c-5.34326,2.30459 -9.94098,6.0487 -13.28,10.81447c-0.92867,1.10367 -1.37074,2.5364 -1.2254,3.97146c0.23017,1.58284 1.2547,3.24988 3.32185,5.315l0.00756,-0.00107l-0.0011,0.00643c2.06509,2.06713 3.7321,3.09154 5.315,3.32185c1.43505,0.14529 2.86776,-0.2968 3.97142,-1.22547c4.76549,-3.33931 8.50954,-7.93694 10.81447,-13.28c0.74156,-1.75444 1.18324,-3.62096 1.30662,-5.52168c0.06425,-1.56266 -0.12849,-2.845 -0.99658,-3.71309c-0.86809,-0.86809 -2.15041,-1.06092 -3.71309,-0.99656z" fill="#565d69"></path><path d="M14.29523,15.7042l34.001,34.001l1.40994,-1.40994l-34.001,-34.001z" fill="#e7eaef"></path><path d="M8.88431,2.00342c-0.22365,0.02673 -0.43174,0.12817 -0.59056,0.28789l-6.00147,6.00148c-0.18795,0.18716 -0.29386,0.44131 -0.29443,0.70655c-0.00056,0.26524 0.10427,0.51985 0.29143,0.7078l0.003,0.003l6.00147,5.99406c0.18753,0.1888 0.44257,0.29507 0.70867,0.29531h5.99409c0.26524,0.00103 0.52004,-0.10334 0.70832,-0.29017c0.18829,-0.18683 0.29465,-0.4408 0.29568,-0.70604v-6.00182c-0.0002,-0.26608 -0.10644,-0.52112 -0.29519,-0.70866l-6.00151,-6.00148c-0.21503,-0.21575 -0.51667,-0.32173 -0.81939,-0.28789z" fill="#fcb860"></path><path d="M48.99755,48c-0.54959,0.00193 -0.99464,0.44697 -0.99658,0.99656v6.00144c0.0002,0.26609 0.10643,0.52112 0.29519,0.70866l5.99409,6.00148c0.38973,0.39139 1.02296,0.39273 1.41435,0.003l0.003,-0.003l6.00148,-6.00148c0.39139,-0.38973 0.39273,-1.02296 0.003,-1.41435l-0.003,-0.003l-6.00148,-5.99409c-0.18752,-0.1888 -0.44256,-0.29508 -0.70866,-0.29531z" fill="#fcb860"></path><path d="M47.293,12.707l4,4.00194c0.39157,0.39157 1.02643,0.39157 1.418,0c0.39157,-0.39157 0.39157,-1.02643 0,-1.418l-4.002,-4.002c-0.25265,-0.25619 -0.62326,-0.35725 -0.97098,-0.26476c-0.34772,0.09248 -0.61916,0.3643 -0.71115,0.71216c-0.09199,0.34785 0.00959,0.71832 0.26613,0.97061z" fill="#e7eaef"></path><path d="M43.291,16.709l4.002,4c0.39157,0.39102 1.02598,0.39057 1.417,-0.001c0.39102,-0.39157 0.39057,-1.02598 -0.001,-1.417l-4,-4c-0.25128,-0.26306 -0.62531,-0.36942 -0.97741,-0.27794c-0.3521,0.09147 -0.62706,0.36643 -0.71853,0.71853c-0.09147,0.3521 0.01489,0.72613 0.27794,0.97741z" fill="#e7eaef"></path><path d="M15.291,44.707l4.002,4.002c0.39157,0.39157 1.02643,0.39157 1.418,0c0.39157,-0.39157 0.39157,-1.02643 0,-1.418l-4.002,-4c-0.39259,-0.38222 -1.01938,-0.37825 -1.4071,0.00892c-0.38771,0.38717 -0.39257,1.01395 -0.0109,1.40708z" fill="#e7eaef"></path><path d="M11.291,48.709l4,4c0.25211,0.2574 0.623,0.35963 0.97138,0.26774c0.34838,-0.09189 0.62061,-0.36374 0.71297,-0.71199c0.09237,-0.34826 -0.00935,-0.71929 -0.26641,-0.97175l-4,-4.00194c-0.25219,-0.2587 -0.62405,-0.36174 -0.97342,-0.26972c-0.34937,0.09202 -0.62222,0.36487 -0.71424,0.71424c-0.09202,0.34937 0.01101,0.72123 0.26971,0.97342z" fill="#e7eaef"></path></g></g></g></svg>