<svg xmlns="http://www.w3.org/2000/svg" xmlns:xlink="http://www.w3.org/1999/xlink" viewBox="0,0,256,256" width="16px" height="16px" fill-rule="nonzero"><g fill="#339af0" fill-rule="nonzero" stroke="none" stroke-width="1" stroke-linecap="butt" stroke-linejoin="miter" stroke-miterlimit="10" stroke-dasharray="" stroke-dashoffset="0" font-family="none" font-weight="none" font-size="none" text-anchor="none" style="mix-blend-mode: normal"><path d="M128,256c-70.69245,0 -128,-57.30755 -128,-128v0c0,-70.69245 57.30755,-128 128,-128v0c70.69245,0 128,57.30755 128,128v0c0,70.69245 -57.30755,128 -128,128z" id="shape"></path></g><g fill="none" fill-rule="nonzero" stroke="none" stroke-width="1" stroke-linecap="butt" stroke-linejoin="miter" stroke-miterlimit="10" stroke-dasharray="" stroke-dashoffset="0" font-family="none" font-weight="none" font-size="none" text-anchor="none" style="mix-blend-mode: normal"><g transform="scale(3.2,3.2)"><path d="M71,31.5c-2.5,0 -4.5,-2 -4.5,-4.5c0,-2.5 2,-4.5 4.5,-4.5c2.5,0 4.5,2 4.5,4.5c0,2.5 -2,4.5 -4.5,4.5z" fill="#ffeea3"></path><path d="M71,23c2.2,0 4,1.8 4,4c0,2.2 -1.8,4 -4,4c-2.2,0 -4,-1.8 -4,-4c0,-2.2 1.8,-4 4,-4M71,22c-2.8,0 -5,2.2 -5,5c0,2.8 2.2,5 5,5c2.8,0 5,-2.2 5,-5c0,-2.8 -2.2,-5 -5,-5z" fill="#ba9b48"></path><path d="M47,63.5c-0.7,0 -1.3,-0.3 -1.8,-0.7c-1,-1 -1,-2.6 0,-3.5l7.8,-8c0.2,-0.2 0.6,-0.4 1,-0.6c0.3,-0.2 0.4,-0.2 0.4,-0.2h6.1l0.1,-0.4c0.1,-0.2 3.8,-9.8 3.8,-9.9l0.3,-0.7h-5.1c-0.1,0 -0.1,0 -0.2,0h-0.2h-0.1c-0.5,0 -1.1,-0.2 -1.5,-0.5l-8,-6c-1.1,-0.8 -1.3,-2.4 -0.5,-3.5c0.5,-0.6 1.2,-1 2,-1c0.5,0 1.1,0.2 1.5,0.5l7.3,5.5h13.5c1.2,0 2.2,1 2.2,2.2c0,0.1 0,0.1 0,0.3c0,0.3 -0.1,0.7 -0.3,1.2c-0.1,0.4 -3.7,9.2 -6.1,15c-0.3,0.6 -0.7,1.2 -1.3,1.6c-0.5,0.4 -1.1,0.5 -1.8,0.6h-0.1c-0.1,0 -0.4,0 -2.6,0c-2.6,0 -6.4,0 -7.3,0h-0.2l-7,7.3c-0.6,0.5 -1.2,0.8 -1.9,0.8z" fill="#ffeea3"></path><path d="M51,29c0.4,0 0.9,0.1 1.2,0.4l7.2,5.4l0.3,0.2h0.3h13.3c0.9,0 1.7,0.8 1.7,1.7v0v0.1c0,0 0,0.1 0,0.2c0,0.2 -0.1,0.5 -0.3,1.1c-0.2,0.5 -3.7,9.3 -6.1,15c-0.2,0.6 -0.6,1.1 -1.1,1.4c-0.4,0.3 -0.9,0.4 -1.6,0.5h-0.1c-0.1,0 -0.6,0 -2.6,0c-2.6,0 -6.4,0 -7.3,0h-0.4l-0.3,0.3l-6.9,7.1c-0.3,0.4 -0.8,0.6 -1.3,0.6c-0.5,0 -1,-0.2 -1.4,-0.6c-0.4,-0.4 -0.6,-0.9 -0.6,-1.4c0,-0.5 0.2,-1 0.6,-1.4l7.8,-8c0.2,-0.2 0.4,-0.3 0.8,-0.5h0.1h0.1c0.1,0 0.1,0 0.1,-0.1h5.6h0.8l0.2,-0.7c0.3,-0.9 3.8,-9.8 3.8,-9.9l0.6,-1.4h-1.5h-4.3c-0.1,0 -0.1,0 -0.2,0h-0.1h-0.1c-0.1,0 -0.1,0 -0.2,0v0c-0.4,0 -0.8,-0.1 -1.2,-0.4l-8,-6c-0.9,-0.7 -1.1,-1.9 -0.4,-2.8c0.3,-0.5 0.9,-0.8 1.5,-0.8M51,28c-0.9,0 -1.8,0.4 -2.4,1.2c-1,1.3 -0.7,3.2 0.6,4.2l8,6c0.5,0.4 1.2,0.6 1.8,0.6c0.1,0 0.2,0 0.3,0c0.1,0 0.2,0 0.2,0h4.3c-0.1,0.1 -3.9,9.9 -3.9,10h-5.7c-0.2,0 -0.3,0.1 -0.5,0.2c-0.4,0.1 -0.8,0.4 -1.2,0.7l-7.8,8c-1.2,1.2 -1.2,3.1 0,4.2c0.6,0.6 1.4,0.9 2.1,0.9c0.7,0 1.5,-0.3 2.1,-0.9l7.1,-7.1c0.9,0 4.7,0 7.3,0c1.5,0 2.6,0 2.7,0c0.8,-0.1 1.5,-0.2 2.1,-0.7c0.6,-0.5 1.1,-1.1 1.4,-1.8c0,0 5.9,-14.6 6.1,-15.1c0.2,-0.5 0.3,-1 0.3,-1.3c0,-0.2 0,-0.3 0,-0.4c0,-1.5 -1.2,-2.7 -2.7,-2.7h-13.2l-7.2,-5.4c-0.5,-0.4 -1.2,-0.6 -1.8,-0.6z" fill="#ba9b48"></path><path d="M2.6,47.8c11.5,-31.1 36.4,-43.4 40.1,-45.1c0.9,2.5 4.8,14.5 4.8,29.3c0,15.2 -8.2,30.7 -9.7,33.3z" fill="#e1ebf2"></path><path d="M42.4,3.4c1.1,3.3 4.6,14.6 4.6,28.6c0,14.4 -7.5,29.1 -9.4,32.7l-34.4,-17.2c11.1,-29.5 34.2,-41.8 39.2,-44.1M43,2c0,0 -28.5,11.6 -41,46l36,18c0,0 10,-17 10,-34c0,-17 -5,-30 -5,-30z" fill="#a3b7cc"></path><path transform="translate(-13.1866,13.56416) rotate(-24.259)" d="M0.7,37h48.5v1h-48.5z" fill="#a3b7cc"></path><path transform="translate(-6.52054,13.38841) rotate(-23.784)" d="M10.1,21.7h36.9v1h-36.9z" fill="#a3b7cc"></path><path transform="translate(-16.80042,16.96173) rotate(-23.961)" d="M15.1,47.6h32.9v1h-32.9z" fill="#a3b7cc"></path><path d="M63.3,55.5c-2.3,0 -5.4,0 -6.8,0v-5h3.9l0.1,-0.4c0.1,-0.2 4.2,-10.4 6.2,-15.6h6.5c1.2,0 2.2,1 2.2,2.2c0,0.1 0,0.2 0,0.3c0,0.3 -0.1,0.7 -0.3,1.2c-0.1,0.4 -3.7,9.2 -6.1,15c-0.3,0.6 -0.7,1.2 -1.3,1.6c-0.5,0.4 -1.1,0.5 -1.8,0.6h-0.1c0.1,0.1 -0.3,0.1 -2.5,0.1z" fill="#f78f8f"></path><path d="M67.1,35h6.2c0.9,0 1.7,0.8 1.7,1.7v0v0.1c0,0 0,0.1 0,0.2c0,0.2 -0.1,0.5 -0.3,1.1c-0.2,0.5 -3.7,9.3 -6.1,15c-0.2,0.6 -0.6,1.1 -1.1,1.4c-0.4,0.3 -0.9,0.4 -1.6,0.5h-0.1c-0.1,0 -0.6,0 -2.6,0c-2,0 -4.8,0 -6.3,0v-4h3h0.8l0.1,-0.7c0.5,-0.8 3.6,-8.5 6.3,-15.3M66.4,34c-2.3,5.8 -6.4,16 -6.4,16h-4v6c0.9,0 4.7,0 7.3,0c1.5,0 2.6,0 2.7,0c0.8,-0.1 1.5,-0.2 2.1,-0.7c0.6,-0.5 1.1,-1.1 1.4,-1.8c0,0 5.9,-14.6 6.1,-15.1c0.2,-0.5 0.3,-1 0.3,-1.3c0,-0.2 0,-0.3 0,-0.4c0,-1.5 -1.2,-2.7 -2.7,-2.7h-6.8z" fill="#c74343"></path><g><path d="M63.3,55.5c-2.3,0 -5.4,0 -6.8,0v-5h13.7l-1.1,2.8c-0.3,0.6 -0.7,1.2 -1.3,1.6c-0.5,0.4 -1.1,0.5 -1.8,0.6h-0.1c0,0 -0.4,0 -2.6,0z" fill="#99c99e"></path><path d="M69.5,51l-0.9,2.1c-0.2,0.6 -0.6,1.1 -1.1,1.4c-0.4,0.3 -0.9,0.4 -1.6,0.5h-0.1c-0.1,0 -0.6,0 -2.6,0c-2,0 -4.8,0 -6.3,0v-4h12.6M71,50h-15v6c0.9,0 4.7,0 7.3,0c1.5,0 2.6,0 2.7,0c0.8,-0.1 1.5,-0.2 2.1,-0.7c0.6,-0.5 1.1,-1.1 1.4,-1.8c0,0 0.6,-1.5 1.5,-3.5z" fill="#5e9c76"></path></g><path d="M2,76h76v-10.2c-2.6,-0.5 -5.7,-1.8 -8,-1.8c-2.9,0 -7.1,2 -10,2c-2.9,0 -7.1,-2 -10,-2c-2.9,0 -7.1,2 -10,2c-2.9,0 -7.1,-2 -10,-2c-2.9,0 -7.1,2 -10,2c-2.9,0 -7.1,-2 -10,-2c-2.3,0 -5.4,1.2 -8,1.8z" fill="#8bb7f0"></path><path d="M70,64c-2.9,0 -7.1,2 -10,2c-2.9,0 -7.1,-2 -10,-2c-2.9,0 -7.1,2 -10,2c-2.9,0 -7.1,-2 -10,-2c-2.9,0 -7.1,2 -10,2c-2.9,0 -7.1,-2 -10,-2c-2.3,0 -5.4,1.2 -8,1.8v1c2.6,-0.5 5.7,-1.8 8,-1.8c2.9,0 7.1,2 10,2c2.9,0 7.1,-2 10,-2c2.9,0 7.1,2 10,2c2.9,0 7.1,-2 10,-2c2.9,0 7.1,2 10,2c2.9,0 7.1,-2 10,-2c2.3,0 5.4,1.2 8,1.8v-1c-2.6,-0.6 -5.7,-1.8 -8,-1.8z" fill="#4e7ab5"></path></g></g></svg>